<svg width="17" height="20" viewBox="0 0 17 20" fill="none" xmlns="http://www.w3.org/2000/svg">
<path d="M8.21564 9.63409C9.53918 9.63409 10.6851 9.15939 11.6217 8.22281C12.558 7.28638 13.0328 6.14059 13.0328 4.81689C13.0328 3.49365 12.5581 2.34772 11.6216 1.41098C10.685 0.474701 9.53903 0 8.21564 0C6.89194 0 5.74615 0.474701 4.80972 1.41113C3.87329 2.34756 3.39844 3.4935 3.39844 4.81689C3.39844 6.14059 3.87329 7.28653 4.80972 8.22296C5.74646 9.15924 6.8924 9.63409 8.21564 9.63409ZM5.63858 2.23984C6.35712 1.5213 7.20001 1.17203 8.21564 1.17203C9.23111 1.17203 10.0742 1.5213 10.7928 2.23984C11.5114 2.95853 11.8608 3.80157 11.8608 4.81689C11.8608 5.83252 11.5114 6.67542 10.7928 7.3941C10.0742 8.11279 9.23111 8.46207 8.21564 8.46207C7.20032 8.46207 6.35742 8.11264 5.63858 7.3941C4.91989 6.67557 4.57047 5.83252 4.57047 4.81689C4.57047 3.80157 4.91989 2.95853 5.63858 2.23984Z" fill="#01001A"/>
<path d="M16.6457 15.3791C16.6187 14.9894 16.564 14.5643 16.4836 14.1154C16.4024 13.6631 16.2979 13.2356 16.1728 12.8448C16.0434 12.4409 15.8678 12.042 15.6503 11.6598C15.425 11.2631 15.1601 10.9176 14.8628 10.6333C14.552 10.3359 14.1714 10.0968 13.7314 9.92242C13.2928 9.74893 12.8069 9.66104 12.287 9.66104C12.0828 9.66104 11.8854 9.74481 11.5041 9.99307C11.2694 10.1461 10.9949 10.3231 10.6885 10.5189C10.4265 10.6858 10.0716 10.8422 9.63318 10.9838C9.20547 11.1222 8.77121 11.1924 8.34244 11.1924C7.91397 11.1924 7.47971 11.1222 7.0517 10.9838C6.61377 10.8424 6.2587 10.686 5.99716 10.519C5.69366 10.3251 5.41901 10.1481 5.18082 9.99292C4.7998 9.74466 4.60236 9.66089 4.39819 9.66089C3.87817 9.66089 3.39233 9.74893 2.95395 9.92258C2.51419 10.0967 2.13348 10.3358 1.82236 10.6335C1.52512 10.9179 1.26022 11.2632 1.035 11.6598C0.817871 12.042 0.64209 12.4407 0.512695 12.8449C0.387726 13.2357 0.283203 13.6631 0.202026 14.1154C0.12146 14.5637 0.0669861 14.989 0.039978 15.3796C0.0134277 15.7615 0 16.159 0 16.5606C0 17.6046 0.331879 18.4498 0.986328 19.0731C1.63269 19.6882 2.48779 20.0001 3.52798 20.0001H13.1581C14.198 20.0001 15.0531 19.6882 15.6996 19.0731C16.3542 18.4503 16.6861 17.6048 16.6861 16.5605C16.6859 16.1575 16.6724 15.76 16.6457 15.3791ZM14.8915 18.224C14.4644 18.6305 13.8974 18.8281 13.158 18.8281H3.52798C2.78839 18.8281 2.22137 18.6305 1.79443 18.2241C1.37558 17.8254 1.17203 17.2811 1.17203 16.5606C1.17203 16.1859 1.18439 15.8158 1.20911 15.4606C1.23322 15.1121 1.2825 14.7292 1.35559 14.3224C1.42776 13.9207 1.51962 13.5436 1.62888 13.2023C1.7337 12.875 1.87668 12.5509 2.05399 12.2387C2.22321 11.9412 2.41791 11.6859 2.63275 11.4802C2.83371 11.2878 3.08701 11.1303 3.38547 11.0122C3.6615 10.903 3.97171 10.8431 4.30847 10.8341C4.34952 10.856 4.42261 10.8976 4.54102 10.9748C4.78195 11.1318 5.05966 11.311 5.36667 11.507C5.71274 11.7277 6.1586 11.927 6.69128 12.0989C7.23587 12.275 7.79129 12.3644 8.34259 12.3644C8.89389 12.3644 9.44946 12.275 9.99374 12.0991C10.5269 11.9268 10.9726 11.7277 11.3191 11.5067C11.6333 11.3059 11.9032 11.132 12.1442 10.9748C12.2626 10.8978 12.3357 10.856 12.3767 10.8341C12.7136 10.8431 13.0238 10.903 13.3 11.0122C13.5983 11.1303 13.8516 11.2879 14.0526 11.4802C14.2674 11.6857 14.4621 11.941 14.6313 12.2389C14.8088 12.5509 14.9519 12.8752 15.0566 13.2021C15.166 13.5439 15.258 13.9208 15.33 14.3223C15.403 14.7299 15.4524 15.1129 15.4765 15.4608V15.4611C15.5014 15.8149 15.5139 16.1848 15.5141 16.5606C15.5139 17.2813 15.3104 17.8254 14.8915 18.224Z" fill="#01001A"/>
</svg>
