<svg width="15" height="15" viewBox="0 0 15 15" fill="none" xmlns="http://www.w3.org/2000/svg">
<path d="M14.4375 8.71875C14.5312 8.34375 15 5.15625 12.4688 2.4375C10.125 -0.0937502 6.46875 0.375 6.09375 0.46875C5.53125 0.1875 4.875 0 4.21875 0C0.9375 0 0 3.09375 0 4.21875C0 5.34375 0.5625 6.28125 0.5625 6.28125C0.1875 7.78125 0.65625 9.375 0.9375 10.2188C1.78125 12.375 3.84375 13.5937 4.6875 13.9687C6.75 14.8125 8.4375 14.4375 8.71875 14.4375C9.375 14.8125 10.0312 15 10.7812 15C11.9062 15 15 14.0625 15 10.7812C15 9.65625 14.4375 8.71875 14.4375 8.71875ZM7.5 11.8125C4.96875 11.8125 3.84375 10.5938 3.84375 9.65625C3.84375 9.1875 4.21875 8.8125 4.6875 8.8125C5.71875 8.8125 5.53125 10.3125 7.5 10.3125C8.53125 10.3125 9.09375 9.75 9.09375 9.1875C9.09375 8.0625 7.78125 8.25 6 7.78125C4.21875 7.3125 3.9375 6.375 3.9375 5.4375C3.9375 3.5625 5.71875 2.8125 7.40625 2.8125C9 2.8125 10.7812 3.65625 10.7812 4.78125C10.7812 5.25 10.3125 5.53125 9.84375 5.53125C8.90625 5.53125 9.09375 4.21875 7.21875 4.21875C6.28125 4.21875 5.8125 4.59375 5.8125 5.25C5.8125 6.09375 7.5 6.28125 8.8125 6.5625C10.5938 7.03125 11.0625 8.0625 11.0625 9C11.1562 10.6875 9.9375 11.8125 7.5 11.8125Z" fill="white"/>
</svg>
