<svg width="18" height="15" viewBox="0 0 18 15" fill="none" xmlns="http://www.w3.org/2000/svg">
<path d="M16.1507 3.73825C16.1626 3.90271 16.1626 4.06622 16.1626 4.22973C16.1626 9.2338 12.4503 15 5.66599 15C3.57582 15 1.63403 14.3788 0 13.3C0.296764 13.3348 0.582536 13.347 0.891207 13.347C2.55179 13.3511 4.16536 12.7814 5.47181 11.7297C4.70189 11.7154 3.95554 11.4548 3.33698 10.9843C2.71841 10.5137 2.2585 9.85675 2.02147 9.10506C2.24954 9.13983 2.47853 9.16333 2.7185 9.16333C3.04916 9.16333 3.38164 9.11634 3.69031 9.03458C2.85476 8.8615 2.10343 8.39683 1.56407 7.7196C1.02472 7.04237 0.730637 6.19438 0.731834 5.31982V5.27284C1.22369 5.55382 1.79432 5.72954 2.39884 5.75304C1.89241 5.40777 1.47715 4.93925 1.19011 4.38929C0.903077 3.83933 0.753187 3.22502 0.753816 2.60118C0.753816 1.89826 0.936088 1.2536 1.25575 0.691643C2.18281 1.86163 3.33905 2.81878 4.64961 3.50112C5.96016 4.18346 7.39579 4.57576 8.86353 4.65261C8.80674 4.37069 8.77193 4.07844 8.77193 3.78524C8.77169 3.28809 8.86696 2.79576 9.05228 2.3364C9.2376 1.87704 9.50935 1.45966 9.85199 1.10812C10.1946 0.75658 10.6014 0.47777 11.0492 0.287632C11.4969 0.0974931 11.9768 -0.000246566 12.4613 4.67106e-07C13.5238 4.67106e-07 14.4828 0.45671 15.1569 1.19534C15.9829 1.03147 16.775 0.722111 17.4981 0.28098C17.2227 1.1557 16.646 1.89742 15.8759 2.36718C16.6085 2.28146 17.3244 2.08381 18 1.78079C17.4954 2.53549 16.8702 3.19729 16.1507 3.73825Z" fill="white"/>
</svg>
