<svg width="21" height="12" viewBox="0 0 21 12" fill="none" xmlns="http://www.w3.org/2000/svg">
<path d="M20.4904 5.31498L20.4895 5.31406L15.4328 0.281803C15.054 -0.0951806 14.4413 -0.0937777 14.0642 0.285093C13.6872 0.663916 13.6886 1.27664 14.0675 1.65367L17.4625 5.03226H0.967742C0.433258 5.03226 0 5.46552 0 6C0 6.53448 0.433258 6.96774 0.967742 6.96774H17.4624L14.0675 10.3463C13.6887 10.7234 13.6872 11.3361 14.0643 11.7149C14.4413 12.0938 15.0541 12.0951 15.4329 11.7182L20.4895 6.68594L20.4904 6.68502C20.8694 6.30673 20.8682 5.69202 20.4904 5.31498Z" fill="#01001A"/>
</svg>
