<svg width="17" height="18" viewBox="0 0 17 18" fill="none" xmlns="http://www.w3.org/2000/svg">
<path d="M8.5 0.5C3.81328 0.5 0 4.31328 0 9C0 13.6867 3.81328 17.5 8.5 17.5C13.1867 17.5 17 13.6867 17 9C17 4.31328 13.1867 0.5 8.5 0.5ZM13.2506 6.76316L7.8183 12.1529C7.49875 12.4724 6.98747 12.4937 6.64662 12.1742L3.77068 9.55389C3.42982 9.23434 3.40852 8.70175 3.70677 8.3609C4.02632 8.02005 4.5589 7.99875 4.89975 8.3183L7.1792 10.406L12.0363 5.54887C12.3772 5.20802 12.9098 5.20802 13.2506 5.54887C13.5915 5.88972 13.5915 6.42231 13.2506 6.76316Z" fill="#0160FF"/>
</svg>
