<svg xmlns="http://www.w3.org/2000/svg" version="1.1" xmlns:xlink="http://www.w3.org/1999/xlink" xmlns:svgjs="http://svgjs.com/svgjs" width="60" height="60" x="0" y="0" viewBox="0 0 24 24" style="enable-background:new 0 0 512 512" xml:space="preserve" class=""><g><path fill="#ffffff" d="m6.841 8.158.981.31c-.15.548-.4.954-.752 1.221-.348.264-.792.396-1.33.396-.665 0-1.212-.226-1.64-.68-.428-.455-.642-1.078-.642-1.866 0-.834.215-1.481.646-1.941.43-.463.996-.694 1.698-.694.613 0 1.111.181 1.494.543.228.214.399.522.513.923l-1.002.24a1.059 1.059 0 0 0-.372-.616 1.056 1.056 0 0 0-.684-.225c-.371 0-.673.133-.906.4-.23.266-.345.698-.345 1.295 0 .633.114 1.084.342 1.353.228.27.524.404.888.404.27 0 .5-.086.694-.257.194-.17.333-.44.417-.806zM8.687 10V4.99h.96V10zm1.948-4.122v-.889h.96v.889zm0 4.122V6.37h.96V10zm5.114-2.557-.947.171c-.032-.189-.105-.331-.219-.427a.649.649 0 0 0-.438-.144.72.72 0 0 0-.574.25c-.141.164-.212.44-.212.827 0 .43.072.735.216.913.146.177.34.266.584.266a.652.652 0 0 0 .448-.153c.116-.105.198-.284.246-.537l.943.16c-.098.433-.286.76-.564.981s-.65.332-1.117.332c-.531 0-.955-.167-1.272-.502-.314-.335-.471-.8-.471-1.392 0-.599.158-1.065.475-1.397.316-.335.745-.503 1.285-.503.442 0 .793.096 1.053.287.262.19.45.479.563.868zM16.445 10V4.99h.96v2.658l1.125-1.278h1.182l-1.24 1.326L19.803 10h-1.036l-.913-1.63-.448.468V10z" data-original="#0073c6" class=""></path><g fill-rule="evenodd" clip-rule="evenodd"><path fill="#ffffff" d="M14.5 11H3v1h11.05c.075-.37.232-.71.45-1z" data-original="#0073c6" class=""></path><path fill="#40505c" d="M16.5 11a1.5 1.5 0 0 0-1.5 1.5v4.38a2.083 2.083 0 0 1-.555-.296l-.347-.26a1.582 1.582 0 0 0-2.158 2.287l3.025 3.575A5.123 5.123 0 0 0 18.876 24h1.579A3.545 3.545 0 0 0 24 20.455V16.5a1.5 1.5 0 0 0-2.236-1.307 1.499 1.499 0 0 0-2-.5A1.499 1.499 0 0 0 18 14.085V12.5a1.5 1.5 0 0 0-1.5-1.5z" data-original="#40505c" class=""></path><path fill="#ffffff" d="M22.5 16a.5.5 0 0 1 .5.5v3.955A2.545 2.545 0 0 1 20.455 23h-1.579a4.124 4.124 0 0 1-3.148-1.46l-3.024-3.574a.582.582 0 0 1 .794-.843l.347.26c.533.4 1.182.617 1.85.617H16v-5.5a.5.5 0 1 1 1 0v5a.5.5 0 1 0 1 0v-2a.5.5 0 1 1 1 0v2a.5.5 0 1 0 1 0V16a.5.5 0 1 1 1 0v1.5a.5.5 0 1 0 1 0v-1a.5.5 0 0 1 .5-.5z" data-original="#ffffff" class=""></path></g></g></svg>