<svg xmlns="http://www.w3.org/2000/svg" version="1.1" xmlns:xlink="http://www.w3.org/1999/xlink" xmlns:svgjs="http://svgjs.com/svgjs" width="60" height="60" x="0" y="0" viewBox="0 0 682.667 682.667" style="enable-background:new 0 0 512 512" xml:space="preserve" class=""><g><defs><clipPath id="a" clipPathUnits="userSpaceOnUse"><path d="M0 512h512V0H0Z" fill="#ffffff" data-original="#000000"></path></clipPath></defs><g clip-path="url(#a)" transform="matrix(1.33333 0 0 -1.33333 0 682.667)"><path d="M0 0c5.181-3.25 11.892-5.221 20.143-5.221 29.323 0 56.546 14.143 56.546 59.699v11.521l-58.127-8.901C1.83 54.638-11.672 45.687-13.222 28.094m-58.917 125.177c13.282 32.833 48.426 62.488 104.843 62.488 81.691 0 112.054-46.087 112.054-97.923V-16.212c0-10.331.91-23.363 2.03-32.944.49-4.21-2.78-7.901-7.02-7.901H84.021C82.45-50.246 81.4-36.114 81.4-26.163 69.608-44.565 48.486-54.887 16.462-56.737c-.01-.01-.01-.01-.02 0-3.52-.22-7.181-.32-10.971-.32m-65.309 184.184 43.846-9.291c2.091 22.522 18.852 41.895 49.216 41.895 29.324 0 43.465-15.192 43.465-33.514 0-8.902-4.71-16.233-19.372-18.332l-63.358-9.422c-12.751-1.86-24.723-5.441-35.244-10.751" style="stroke-width:15;stroke-linecap:round;stroke-linejoin:round;stroke-miterlimit:10;stroke-dasharray:none;stroke-opacity:1" transform="translate(357.663 132.382)" fill="none" stroke="#ffffff" stroke-width="15" stroke-linecap="round" stroke-linejoin="round" stroke-miterlimit="10" stroke-dasharray="none" stroke-opacity="" data-original="#000000"></path><path d="M0 0h73.716L37.1 79.497Zm113.015 116.879 109.487-232.625c2.507-5.325-1.379-11.448-7.265-11.448h-76.968a8.329 8.329 0 0 0-7.54 4.79L112.49-83.551a6.212 6.212 0 0 1-5.623 3.572H6.044m-29.607 0h-9.551a6.212 6.212 0 0 1-5.646-3.62l-17.789-38.742a8.329 8.329 0 0 0-7.57-4.853h-76.967c-5.874 0-9.76 6.101-7.275 11.423L12.335 228.581c1.587 3.4 5 5.573 8.752 5.573h30.601a9.66 9.66 0 0 0 8.739-5.544l39.059-82.99" style="stroke-width:15;stroke-linecap:round;stroke-linejoin:round;stroke-miterlimit:10;stroke-dasharray:none;stroke-opacity:1" transform="translate(156.624 202.52)" fill="none" stroke="#ffffff" stroke-width="15" stroke-linecap="round" stroke-linejoin="round" stroke-miterlimit="10" stroke-dasharray="none" stroke-opacity="" data-original="#000000"></path></g></g></svg>
