<svg xmlns="http://www.w3.org/2000/svg" version="1.1" xmlns:xlink="http://www.w3.org/1999/xlink" xmlns:svgjs="http://svgjs.com/svgjs" width="60" height="60" x="0" y="0" viewBox="0 0 512 512" style="enable-background:new 0 0 512 512" xml:space="preserve" class=""><g><linearGradient id="a" x1="96.524" x2="444.685" y1="456.199" y2="41.276" gradientUnits="userSpaceOnUse"><stop offset="0" stop-color="#d2deff" stop-opacity="0"></stop><stop offset=".459" stop-color="#cee2fd" stop-opacity=".67"></stop><stop offset=".685" stop-color="#c9e7fa"></stop></linearGradient><path fill="url(#a)" d="M4.896 326.759C22.344 499.631 297.313 493.901 425.7 463.024c82.47-19.834 87.596-59.472 86.106-144.001-.96-54.486 3.443-198.725-32.004-244.123-54.448-69.733-103.228-25.998-170.656-3.235-86.488 29.197-120.189-22.932-202.476-21.38C-13.971 52.563-4.109 237.537 4.896 326.759z" data-original="url(#a)" class=""></path><path fill="#bae1f8" d="M411.69 139.4v327.83c0 8.284-6.716 15-15 15H115.31c-8.284 0-15-6.716-15-15V74.77c0-8.284 6.716-15 15-15h216.75z" data-original="#bae1f8" class=""></path><path fill="#ffffff" d="M411.69 114.4v327.83c0 8.284-6.716 15-15 15H115.31c-8.284 0-15-6.716-15-15V49.77c0-8.284 6.716-15 15-15h216.75z" data-original="#ffffff" class=""></path><circle cx="231.717" cy="217.334" r="66.677" fill="#ff7eb8" data-original="#ff7eb8" class=""></circle><path fill="#226191" d="M411.69 345.755v-133.08c-23.25-8.09-48.255-12.495-74.266-12.495-96.451 0-178.753 60.484-211.134 145.574h285.4z" data-original="#226191" class=""></path><path fill="#2d719b" d="M335.47 345.756H100.31v-90.014c24.426-15.946 53.581-25.201 84.904-25.201 71.949 0 132.507 48.851 150.256 115.215z" data-original="#2d719b" class=""></path><path fill="#bae1f8" d="M332.06 119.4V34.77l79.63 79.63v20h-64.63c-8.284 0-15-6.716-15-15z" data-original="#bae1f8" class=""></path><path fill="#73aacf" d="M332.06 99.4V34.77l79.63 79.63h-64.63c-8.284 0-15-6.716-15-15z" data-original="#73aacf" class=""></path><path fill="#ff7eb8" d="M163.613 79.387c0-9.161-7.453-16.613-16.613-16.613s-16.613 7.453-16.613 16.613c0 4.518 1.818 8.615 4.755 11.613-2.936 2.998-4.755 7.095-4.755 11.613a5 5 0 1 0 10 0c0-3.646 2.967-6.613 6.613-6.613s6.613 2.967 6.613 6.613a5 5 0 1 0 10 0c0-4.518-1.818-8.615-4.755-11.613 2.937-2.998 4.755-7.095 4.755-11.613zM147 72.774c3.646 0 6.613 2.967 6.613 6.613S150.646 86 147 86s-6.613-2.967-6.613-6.613 2.967-6.613 6.613-6.613z" data-original="#ff7eb8" class=""></path><path fill="#73aacf" d="M100.31 305.5v136.73c0 8.284 6.716 15 15 15h281.38c8.284 0 15-6.716 15-15V305.5z" data-original="#73aacf" class=""></path><path fill="#ffffff" d="M198.35 428.167h-44.683c-4.142 0-7.5-3.357-7.5-7.5s3.358-7.5 7.5-7.5h42.183V384.5h-37.183c-6.893 0-12.5-5.607-12.5-12.5v-33.667c0-6.893 5.607-12.5 12.5-12.5h44.683c4.142 0 7.5 3.357 7.5 7.5s-3.358 7.5-7.5 7.5h-42.183V369.5h37.183c6.893 0 12.5 5.607 12.5 12.5v33.667c0 6.893-5.608 12.5-12.5 12.5zM256 428.167a13.51 13.51 0 0 1-13.233-10.546l-18.919-82.614a7.5 7.5 0 0 1 14.621-3.347L256 408.211l17.531-76.552a7.502 7.502 0 0 1 8.985-5.637 7.499 7.499 0 0 1 5.636 8.984l-18.919 82.614A13.51 13.51 0 0 1 256 428.167zM353.333 428.167H313.65c-6.893 0-12.5-5.607-12.5-12.5v-77.334c0-6.893 5.607-12.5 12.5-12.5h44.683c4.142 0 7.5 3.357 7.5 7.5s-3.358 7.5-7.5 7.5H316.15v72.334h34.683V384.5h-17.342c-4.142 0-7.5-3.357-7.5-7.5s3.358-7.5 7.5-7.5h19.842c6.893 0 12.5 5.607 12.5 12.5v33.667c0 6.893-5.607 12.5-12.5 12.5z" data-original="#ffffff" class=""></path><path fill="#014073" d="m415.226 110.865-79.629-79.63a5.115 5.115 0 0 0-3.537-1.466H115.31c-11.028 0-20 8.972-20 20v59.73a5 5 0 1 0 10 0V49.77c0-5.514 4.486-10 10-10h211.75v59.631c0 11.028 8.972 20 20 20h30.629a5 5 0 1 0 0-10H347.06c-5.514 0-10-4.486-10-10v-52.56l69.63 69.631v325.759c0 5.514-4.486 10-10 10H115.31c-5.514 0-10-4.486-10-10V143.5a5 5 0 1 0-10 0v298.73c0 11.028 8.972 20 20 20h281.38c11.028 0 20-8.972 20-20V114.4a5.002 5.002 0 0 0-1.464-3.535z" data-original="#014073" class=""></path><path fill="#2a719b" d="M58 185.097a5 5 0 0 1-5-5c0-3.309-2.691-6-6-6a5 5 0 1 1 0-10c3.309 0 6-2.691 6-6a5 5 0 1 1 10 0c0 3.309 2.691 6 6 6a5 5 0 1 1 0 10c-3.309 0-6 2.691-6 6a5 5 0 0 1-5 5z" data-original="#2a719b"></path><g fill="#ff7eb8"><path d="M428 85.387a5 5 0 0 1-5-5c0-3.309-2.691-6-6-6a5 5 0 1 1 0-10c3.309 0 6-2.691 6-6a5 5 0 1 1 10 0c0 3.309 2.691 6 6 6a5 5 0 1 1 0 10c-3.309 0-6 2.691-6 6a5 5 0 0 1-5 5zM58 473.231a5 5 0 0 1-5-5c0-3.309-2.691-6-6-6a5 5 0 1 1 0-10c3.309 0 6-2.692 6-6.001a5 5 0 1 1 10 0 6.007 6.007 0 0 0 6 6.001 5 5 0 1 1 0 10c-3.309 0-6 2.691-6 6a5 5 0 0 1-5 5zM53 413.5a4.998 4.998 0 0 1-3.536-8.535l10-10a5 5 0 1 1 7.071 7.07l-10 10A4.98 4.98 0 0 1 53 413.5z" fill="#ff7eb8" data-original="#ff7eb8" class=""></path></g><path fill="#2a719b" d="M455 139.401a4.998 4.998 0 0 1-3.536-8.535l10-10a5 5 0 1 1 7.071 7.07l-10 10a4.984 4.984 0 0 1-3.535 1.465z" data-original="#2a719b"></path></g></svg>