<svg width="14" height="8" viewBox="0 0 14 8" fill="none" xmlns="http://www.w3.org/2000/svg">
<g clip-path="url(#clip0_958_322)">
<path d="M0.800752 0.941352C0.796707 0.757966 0.849851 0.577879 0.952785 0.426112C1.05572 0.274346 1.20333 0.158435 1.37511 0.094508C1.54695 0.0305848 1.73442 0.0218523 1.91145 0.0695097C2.08848 0.117167 2.24627 0.218863 2.36288 0.360438L6.98587 5.76144L11.6078 0.360438C11.6796 0.262453 11.7709 0.180359 11.8759 0.119318C11.9809 0.0582774 12.0973 0.0195958 12.2179 0.00569455C12.3386 -0.00808826 12.4608 0.00321426 12.5769 0.0389089C12.693 0.0746035 12.8005 0.133908 12.8926 0.213116C12.9848 0.292269 13.0597 0.38963 13.1125 0.499087C13.1653 0.608545 13.195 0.727754 13.1997 0.849225C13.2042 0.97061 13.1837 1.09162 13.1395 1.20475C13.0954 1.31788 13.0284 1.42071 12.9428 1.50683L7.65614 7.69067C7.57333 7.78773 7.47047 7.86567 7.35466 7.9191C7.23885 7.97253 7.11284 8.00021 6.98532 8.00019C6.8578 8.00021 6.73178 7.97253 6.61597 7.9191C6.50016 7.86567 6.39731 7.78773 6.3145 7.69067L1.02289 1.50683C0.884916 1.35035 0.806799 1.15 0.802407 0.941352L0.800752 0.941352Z" fill="#39394A"/>
</g>
<defs>
<clipPath id="clip0_958_322">
<rect width="8" height="12.4" fill="white" transform="matrix(-4.37114e-08 1 1 4.37114e-08 0.800049 0)"/>
</clipPath>
</defs>
</svg>
